<?xml version="1.0" encoding="UTF-8" standalone="no"?>
<!DOCTYPE svg PUBLIC "-//W3C//DTD SVG 1.1//EN" "http://www.w3.org/Graphics/SVG/1.1/DTD/svg11.dtd">
<svg width="100%" height="100%" viewBox="0 0 1613 423" version="1.1" xmlns="http://www.w3.org/2000/svg" xmlns:xlink="http://www.w3.org/1999/xlink" xml:space="preserve" xmlns:serif="http://www.serif.com/" style="fill-rule:evenodd;clip-rule:evenodd;stroke-linejoin:round;stroke-miterlimit:2;">
    <g id="Fichier_vectoriel_logo_2_1_" transform="matrix(1,0,0,1,-145.6,-328.578)">
        <path id="Path_1" d="M586.94,423C578.962,475.067 563.934,525.807 542.27,573.82C534.061,592.008 524.916,609.758 514.87,627C504.94,643.45 494.41,659.4 483.72,674.82L483.67,674.89C480.83,678.963 477.983,683 475.13,687C462.729,704.599 446.471,719.136 427.6,729.5C390.015,749.959 344.495,749.959 306.91,729.5C288.037,719.139 271.779,704.601 259.38,687C258.047,685.16 256.737,683.303 255.45,681.43C240.89,660.7 226.51,639.01 213.45,616.38L213.45,616.32C206,603.15 198.85,588.983 192,573.82C168.657,522.079 153.023,467.195 145.6,410.92C167.257,495.205 215.869,570.15 284,624.29C352.131,678.43 259.12,621.59 228.71,605.5C243.4,630.2 258.99,654.15 274.66,676.22C297.09,707.84 331.24,726.22 367.29,726.22C403.34,726.22 437.48,707.8 459.91,676.22C475.57,654.15 491.16,630.22 505.86,605.5C480,619.18 458.15,623.18 452.18,624.08C453.3,623.18 454.45,622.26 455.61,621.31C517.685,570.735 563.148,502.649 586.07,425.93C586.37,424.94 586.66,424 586.94,423Z" style="fill:white;fill-rule:nonzero;"/>
        <path id="Path_2" d="M323.8,561.72C325.338,569.592 328.702,576.994 333.62,583.33C339.036,589.926 345.722,595.367 353.28,599.33C360.838,603.293 354.49,584.78 346.35,574.33C338.21,563.88 323.8,561.72 323.8,561.72Z" style="fill:white;fill-rule:nonzero;"/>
        <path id="Path_3" d="M320.56,652.84C341.1,662.19 392.38,662.69 413.94,652.84C391.59,641.55 344.39,640.94 320.56,652.84Z" style="fill:white;fill-rule:nonzero;"/>
        <path id="Path_4" d="M400.89,583.33C405.808,576.994 409.172,569.592 410.71,561.72C412.248,553.848 396.29,564.03 388.15,574.43C380.01,584.83 381.23,599.43 381.23,599.43C388.796,595.435 395.482,589.96 400.89,583.33Z" style="fill:white;fill-rule:nonzero;"/>
        <path id="Path_5" d="M949.78,642.24L996.52,642.24L996.52,369.51L932.92,369.51L932.92,563.39L778.26,398.39C759.1,379.23 736.38,369.48 710.78,369.48L664,369.48L664,642.24L727.61,642.24L727.61,438.05L882.3,613.32C901.52,632.51 924.22,642.24 949.78,642.24Z" style="fill:white;fill-rule:nonzero;"/>
        <path id="Path_6" d="M1176.6,423.15L1402.6,423.15L1402.6,369.51L1136.76,369.51C1123.68,369.51 1112.85,373.97 1103.67,383.15C1094.71,391.796 1089.76,403.803 1090.02,416.25L1090.02,642.25L1153.63,642.25L1153.63,446.12C1153.69,433.527 1164.04,423.185 1176.63,423.12L1176.6,423.15Z" style="fill:white;fill-rule:nonzero;"/>
        <path id="Path_7" d="M1170.88,479.05L1188.76,532.7L1371.53,532.7L1353.65,479.05L1170.88,479.05Z" style="fill:white;fill-rule:nonzero;"/>
        <path id="Path_8" d="M1659.43,602.4L1679.35,642.24L1752.19,642.24L1624.94,387.74C1618.81,375.47 1609.94,369.51 1597.8,369.51L1530,369.51L1393.61,642.24L1466.45,642.24L1572.9,429.34L1632.61,548.76L1532.33,548.76L1550.21,602.4L1659.43,602.4Z" style="fill:white;fill-rule:nonzero;"/>
        <path id="Path_9" d="M667.9,688C672.564,687.988 677.032,689.904 680.24,693.29L706.66,721.48L706.66,688L719,688L719,737.33L710.19,737.33C705.519,737.332 701.05,735.402 697.85,732L671.43,702.05L671.43,737.28L659.09,737.28L659.09,688L667.9,688Z" style="fill:white;fill-rule:nonzero;"/>
        <path id="Path_10" d="M745.32,737.32C745.313,737.32 745.307,737.32 745.3,737.32C740.478,737.32 736.51,733.352 736.51,728.53C736.51,728.527 736.51,728.523 736.51,728.52L736.51,707.38C736.51,707.373 736.51,707.367 736.51,707.36C736.51,702.538 740.478,698.57 745.3,698.57C745.307,698.57 745.313,698.57 745.32,698.57L777,698.57C777.01,698.57 777.02,698.57 777.03,698.57C781.841,698.57 785.8,702.529 785.8,707.34C785.8,707.353 785.8,707.367 785.8,707.38L785.8,728.52C785.8,728.53 785.8,728.54 785.8,728.55C785.8,733.361 781.841,737.32 777.03,737.32C777.02,737.32 777.01,737.32 777,737.32L745.32,737.32ZM752.32,709.14C750.395,709.156 748.816,710.735 748.8,712.66L748.8,723.23C748.816,725.155 750.395,726.734 752.32,726.75L770,726.75C771.925,726.734 773.504,725.155 773.52,723.23L773.52,712.66C773.504,710.735 771.925,709.156 770,709.14L752.32,709.14Z" style="fill:white;fill-rule:nonzero;"/>
        <path id="Path_11" d="M843.18,698.57C843.193,698.57 843.207,698.57 843.22,698.57C848.031,698.57 851.99,702.529 851.99,707.34C851.99,707.353 851.99,707.367 851.99,707.38L851.99,737.32L839.66,737.32L839.66,712.66C839.644,710.731 838.059,709.151 836.13,709.14L815,709.14L815,737.32L802.66,737.32L802.66,698.57L843.18,698.57Z" style="fill:white;fill-rule:nonzero;"/>
        <rect id="Path_12" x="868.1" y="707.38" width="42.28" height="10.62" style="fill:white;fill-rule:nonzero;"/>
        <path id="Path_13" d="M938.82,737.32L926.49,737.32L926.49,696.8C926.49,696.797 926.49,696.793 926.49,696.79C926.49,691.968 930.458,688 935.28,688C935.287,688 935.293,688 935.3,688L982.87,688L982.87,698.58L942.35,698.58C940.421,698.591 938.836,700.171 938.82,702.1L938.82,737.32ZM974.06,707.38L977.58,718L944.11,718L940.58,707.43L974.06,707.38Z" style="fill:white;fill-rule:nonzero;"/>
        <path id="Path_14" d="M1033.33,698.57L1045.67,698.57L1045.67,728.52C1045.67,728.523 1045.67,728.527 1045.67,728.53C1045.67,733.352 1041.7,737.32 1036.88,737.32C1036.87,737.32 1036.87,737.32 1036.86,737.32L1005.14,737.32C1005.13,737.32 1005.13,737.32 1005.12,737.32C1000.3,737.32 996.33,733.352 996.33,728.53C996.33,728.527 996.33,728.523 996.33,728.52L996.33,698.57L1008.67,698.57L1008.67,723.23C1008.69,725.155 1010.26,726.734 1012.19,726.75L1029.81,726.75C1031.74,726.734 1033.31,725.155 1033.33,723.23L1033.33,698.57Z" style="fill:white;fill-rule:nonzero;"/>
        <path id="Path_15" d="M1103.32,698.57C1103.33,698.57 1103.33,698.57 1103.34,698.57C1108.16,698.57 1112.13,702.538 1112.13,707.36C1112.13,707.367 1112.13,707.373 1112.13,707.38L1112.13,737.32L1099.79,737.32L1099.79,712.66C1099.77,710.735 1098.19,709.156 1096.27,709.14L1075.13,709.14L1075.13,737.32L1062.8,737.32L1062.8,698.57L1103.32,698.57Z" style="fill:white;fill-rule:nonzero;"/>
        <path id="Path_16" d="M1160.48,726.75L1164,737.32L1137.57,737.32C1137.56,737.32 1137.56,737.32 1137.55,737.32C1132.73,737.32 1128.76,733.352 1128.76,728.53C1128.76,728.527 1128.76,728.523 1128.76,728.52L1128.76,707.38C1128.76,707.373 1128.76,707.367 1128.76,707.36C1128.76,702.538 1132.73,698.57 1137.55,698.57C1137.56,698.57 1137.56,698.57 1137.57,698.57L1169.29,698.57C1169.3,698.57 1169.31,698.57 1169.32,698.57C1174.13,698.57 1178.09,702.529 1178.09,707.34C1178.09,707.353 1178.09,707.367 1178.09,707.38L1178.09,742.61C1178.09,742.623 1178.09,742.637 1178.09,742.65C1178.09,747.461 1174.13,751.42 1169.32,751.42C1169.31,751.42 1169.3,751.42 1169.29,751.42L1135.81,751.42L1132.29,740.85L1165.76,740.85L1165.76,712.66C1165.74,710.735 1164.16,709.156 1162.24,709.14L1144.62,709.14C1142.69,709.156 1141.12,710.735 1141.1,712.66L1141.1,723.23C1141.12,725.155 1142.69,726.734 1144.62,726.75L1160.48,726.75Z" style="fill:white;fill-rule:nonzero;"/>
        <path id="Path_17" d="M1196.64,688L1209,688L1209,695L1196.67,695L1196.64,688ZM1209,737.32L1196.67,737.32L1196.67,698.57L1209,698.57L1209,737.32Z" style="fill:white;fill-rule:nonzero;"/>
        <path id="Path_18" d="M1245.66,709.14L1242.13,698.57L1268.56,698.57C1268.57,698.57 1268.57,698.57 1268.58,698.57C1273.4,698.57 1277.37,702.538 1277.37,707.36C1277.37,707.367 1277.37,707.373 1277.37,707.38L1277.37,728.52C1277.37,728.523 1277.37,728.527 1277.37,728.53C1277.37,733.352 1273.4,737.32 1268.58,737.32C1268.57,737.32 1268.57,737.32 1268.56,737.32L1236.85,737.32C1236.84,737.32 1236.82,737.32 1236.81,737.32C1232,737.32 1228.04,733.361 1228.04,728.55C1228.04,728.54 1228.04,728.53 1228.04,728.52L1228.04,688L1240.37,688L1240.37,723.24C1240.35,724.168 1240.71,725.066 1241.37,725.72C1242.02,726.383 1242.92,726.745 1243.85,726.72L1261.47,726.72C1263.4,726.715 1264.99,725.129 1264.99,723.2L1264.99,712.66C1264.99,710.731 1263.4,709.145 1261.47,709.14L1245.66,709.14Z" style="fill:white;fill-rule:nonzero;"/>
        <rect id="Path_19" x="1295.59" y="688" width="12.33" height="49.33" style="fill:white;fill-rule:nonzero;"/>
        <path id="Path_20" d="M1343.06,723.23L1339.54,712.66L1362.44,712.66L1362.44,709.14L1341.3,709.14C1339.37,709.151 1337.79,710.731 1337.77,712.66L1337.77,723.23C1337.79,725.159 1339.37,726.739 1341.3,726.75L1371.3,726.75L1371.3,737.32L1334.3,737.32C1334.29,737.32 1334.27,737.32 1334.26,737.32C1329.45,737.32 1325.49,733.361 1325.49,728.55C1325.49,728.54 1325.49,728.53 1325.49,728.52L1325.49,707.38C1325.49,707.367 1325.49,707.353 1325.49,707.34C1325.49,702.529 1329.45,698.57 1334.26,698.57C1334.27,698.57 1334.29,698.57 1334.3,698.57L1366,698.57C1366.01,698.57 1366.03,698.57 1366.04,698.57C1370.85,698.57 1374.81,702.529 1374.81,707.34C1374.81,707.353 1374.81,707.367 1374.81,707.38L1374.81,723.23L1343.06,723.23Z" style="fill:white;fill-rule:nonzero;"/>
        <path id="Path_21" d="M1484.51,730.28L1465.13,730.28L1461.61,719.71L1479.23,719.71L1469.54,700.33L1451.04,737.33L1436.94,737.33L1461.61,688L1473.94,688C1476.26,687.981 1478.36,689.385 1479.23,691.53L1502.13,737.33L1488,737.33L1484.51,730.28Z" style="fill:white;fill-rule:nonzero;"/>
        <rect id="Path_22" x="1515.6" y="688" width="12.33" height="49.33" style="fill:white;fill-rule:nonzero;"/>
        <path id="Path_23" d="M1547.28,688L1559.61,688L1559.61,695L1547.28,695L1547.28,688ZM1559.61,737.33L1547.28,737.33L1547.28,698.57L1559.61,698.57L1559.61,737.33Z" style="fill:white;fill-rule:nonzero;"/>
        <path id="Path_24" d="M1594.75,723.23L1591.23,712.66L1614.13,712.66L1614.13,709.14L1593,709.14C1591.07,709.151 1589.49,710.731 1589.47,712.66L1589.47,723.23C1589.49,725.159 1591.07,726.739 1593,726.75L1623,726.75L1623,737.32L1586,737.32C1585.99,737.32 1585.97,737.32 1585.96,737.32C1581.15,737.32 1577.19,733.361 1577.19,728.55C1577.19,728.54 1577.19,728.53 1577.19,728.52L1577.19,707.38C1577.19,707.367 1577.19,707.353 1577.19,707.34C1577.19,702.529 1581.15,698.57 1585.96,698.57C1585.97,698.57 1585.99,698.57 1586,698.57L1617.71,698.57C1617.72,698.57 1617.74,698.57 1617.75,698.57C1622.56,698.57 1626.52,702.529 1626.52,707.34C1626.52,707.353 1626.52,707.367 1626.52,707.38L1626.52,723.23L1594.75,723.23Z" style="fill:white;fill-rule:nonzero;"/>
        <path id="Path_25" d="M1683.51,698.57C1683.52,698.57 1683.54,698.57 1683.55,698.57C1688.36,698.57 1692.32,702.529 1692.32,707.34C1692.32,707.353 1692.32,707.367 1692.32,707.38L1692.32,737.32L1680,737.32L1680,712.66C1680.02,711.732 1679.66,710.834 1679,710.18C1678.35,709.517 1677.45,709.155 1676.52,709.18L1655.38,709.18L1655.38,737.36L1643,737.36L1643,698.57L1683.51,698.57Z" style="fill:white;fill-rule:nonzero;"/>
        <path id="Path_26" d="M1717.77,723.23C1717.76,723.23 1717.74,723.23 1717.73,723.23C1712.92,723.23 1708.96,719.271 1708.96,714.46C1708.96,714.447 1708.96,714.433 1708.96,714.42L1708.96,707.42C1708.96,707.407 1708.96,707.393 1708.96,707.38C1708.96,702.569 1712.92,698.61 1717.73,698.61C1717.74,698.61 1717.76,698.61 1717.77,698.61L1749.48,698.61C1749.49,698.61 1749.51,698.61 1749.52,698.61C1754.33,698.61 1758.29,702.569 1758.29,707.38C1758.29,707.393 1758.29,707.407 1758.29,707.42L1758.29,709.18L1721.29,709.18L1721.29,712.7L1749.48,712.7C1749.49,712.7 1749.51,712.7 1749.52,712.7C1754.33,712.7 1758.29,716.659 1758.29,721.47C1758.29,721.483 1758.29,721.497 1758.29,721.51L1758.29,728.51C1758.29,728.52 1758.29,728.53 1758.29,728.54C1758.29,733.351 1754.33,737.31 1749.52,737.31C1749.51,737.31 1749.49,737.31 1749.48,737.31L1717.77,737.31C1717.76,737.31 1717.74,737.31 1717.73,737.31C1712.92,737.31 1708.96,733.351 1708.96,728.54C1708.96,728.53 1708.96,728.52 1708.96,728.51L1708.96,726.74L1745.96,726.74L1745.96,723.22L1717.77,723.23Z" style="fill:white;fill-rule:nonzero;"/>
        <path id="Path_27" d="M242.78,328.94L242.9,328.94C199.27,325.15 166.39,355.27 170.97,394.15C170.97,394.15 174.26,380.56 183.13,372.62C149.93,472.47 303.13,590.28 334.7,498.72C333.85,518.42 323.02,535.98 323.02,535.98C391.49,482.62 326.05,337.84 242.78,328.94ZM264.54,487.71C264.44,487.92 264.37,487.87 264.25,487.71C263.68,486.93 263.09,486.16 262.52,485.38L256.82,477.67C255.68,476.13 254.56,474.58 253.42,473.04C251.76,470.78 250.07,468.53 248.42,466.28C247.21,464.65 246.02,463.01 244.82,461.37C243.62,459.73 242.22,457.84 240.93,456.07L236,449.43C234.43,447.3 232.85,445.19 231.29,443.07L229.11,440.07L234.11,442.89L240.26,446.41L248.6,451.18L256.18,455.49C258.26,456.68 260.33,457.89 262.43,459.07C263.055,459.497 263.726,459.852 264.43,460.13L269.43,457.29L274.71,454.29L280.38,451.05L285.56,448.05L292.74,443.94L298.74,440.51C298.966,440.347 299.232,440.246 299.51,440.22L264.54,487.71ZM299.36,432.6L291.55,437.05L280.31,443.49L265.31,452.03L264.43,452.51C263.302,451.975 262.207,451.374 261.15,450.71C258.71,449.35 256.29,447.97 253.87,446.58L246.05,442.06C244.36,441.06 242.65,440.15 240.96,439.18L233,434.64L229.36,432.58C229.24,432.51 229.08,432.45 229.16,432.25C229.495,431.529 229.9,430.842 230.37,430.2C232.01,427.57 233.677,424.947 235.37,422.33C236.84,420.04 238.37,417.77 239.79,415.48C241.79,412.33 243.79,409.16 245.79,406C247.61,403.13 249.46,400.26 251.28,397.39C252.28,395.84 253.28,394.27 254.22,392.72C255.51,390.72 256.81,388.67 258.1,386.65C259.15,385.01 260.19,383.35 261.24,381.71C262.29,380.07 263.24,378.52 264.31,376.99C264.61,376.86 264.61,377.15 264.7,377.29C266.23,379.69 267.76,382.08 269.28,384.49C270.8,386.9 272.13,389.05 273.58,391.32C274.78,393.2 276.02,395.05 277.22,396.92C278.42,398.79 279.4,400.42 280.51,402.16C282.21,404.83 283.92,407.48 285.61,410.16C287.09,412.48 288.55,414.81 290.02,417.16C291.21,419.03 292.41,420.89 293.6,422.75C294.9,424.75 296.2,426.82 297.49,428.86L299.61,432.26C299.71,432.47 299.5,432.52 299.36,432.6Z" style="fill:white;fill-rule:nonzero;"/>
        <path id="Path_28" d="M568.4,394.11C572.98,355.23 540.11,325.11 496.48,328.9L496.6,328.9C413.33,337.8 347.89,482.58 416.36,535.9C416.36,535.9 405.53,518.34 404.68,498.64C436.3,590.2 589.45,472.39 556.24,372.54C565.12,380.52 568.4,394.11 568.4,394.11ZM474.26,487.71C474.15,487.92 474.09,487.87 473.96,487.71C473.4,486.93 472.81,486.16 472.23,485.38L466.53,477.67C465.4,476.13 464.28,474.58 463.14,473.04C461.47,470.78 459.79,468.53 458.14,466.28C456.94,464.65 455.75,463.01 454.55,461.37L450.65,456.07L445.77,449.43C444.2,447.3 442.62,445.19 441.05,443.07L438.87,440.07L443.87,442.89L450.03,446.41L458.36,451.18L465.94,455.49C468.03,456.68 470.1,457.89 472.19,459.07C472.814,459.498 473.485,459.854 474.19,460.13L479.19,457.29L484.46,454.29L490.1,451L495.29,448L502.46,443.89L508.46,440.46C508.69,440.297 508.959,440.197 509.24,440.17L474.26,487.71ZM509.07,432.6L501.27,437.05L490,443.49L475,452L474.12,452.48C472.992,451.945 471.897,451.344 470.84,450.68C468.4,449.32 465.98,447.94 463.56,446.55C460.94,445.05 458.35,443.55 455.73,442.03C454.04,441.03 452.34,440.12 450.65,439.15L442.7,434.61L439.07,432.55C438.94,432.48 438.78,432.42 438.86,432.22C439.202,431.5 439.611,430.814 440.08,430.17C441.72,427.54 443.387,424.917 445.08,422.3C446.54,420.01 448.08,417.74 449.5,415.45C451.5,412.3 453.5,409.13 455.5,405.97L461,397.36C462,395.81 462.95,394.24 463.94,392.69C465.23,390.69 466.53,388.64 467.82,386.62C468.87,384.98 469.9,383.32 470.96,381.68C472.02,380.04 472.96,378.49 474.02,376.96C474.33,376.83 474.33,377.12 474.41,377.26C475.94,379.66 477.47,382.05 479,384.46C480.53,386.87 481.85,389.02 483.3,391.29C484.49,393.17 485.73,395.02 486.93,396.89C488.13,398.76 489.12,400.39 490.23,402.13C491.92,404.8 493.63,407.45 495.33,410.13C496.8,412.45 498.26,414.78 499.74,417.13C500.92,419 502.12,420.86 503.31,422.72C504.61,424.72 505.91,426.79 507.2,428.83C507.92,429.96 508.62,431.1 509.33,432.23C509.42,432.47 509.22,432.52 509.07,432.6Z" style="fill:white;fill-rule:nonzero;"/>
    </g>
</svg>
